<svg width="18" height="18" viewBox="0 0 18 18" fill="none" xmlns="http://www.w3.org/2000/svg">
<path d="M9 10.8C13.9704 10.8 18 12.6804 18 15V18H0V15C0 12.6804 4.0296 10.8 9 10.8ZM16.8 15C16.8 13.344 13.308 12 9 12C4.692 12 1.2 13.344 1.2 15V16.8H16.8V15ZM9 0C10.1139 0 11.1822 0.442499 11.9698 1.23015C12.7575 2.0178 13.2 3.08609 13.2 4.2C13.2 5.31391 12.7575 6.3822 11.9698 7.16985C11.1822 7.9575 10.1139 8.4 9 8.4C7.88609 8.4 6.8178 7.9575 6.03015 7.16985C5.2425 6.3822 4.8 5.31391 4.8 4.2C4.8 3.08609 5.2425 2.0178 6.03015 1.23015C6.8178 0.442499 7.88609 0 9 0ZM9 1.2C8.20435 1.2 7.44129 1.51607 6.87868 2.07868C6.31607 2.64129 6 3.40435 6 4.2C6 4.99565 6.31607 5.75871 6.87868 6.32132C7.44129 6.88393 8.20435 7.2 9 7.2C9.79565 7.2 10.5587 6.88393 11.1213 6.32132C11.6839 5.75871 12 4.99565 12 4.2C12 3.40435 11.6839 2.64129 11.1213 2.07868C10.5587 1.51607 9.79565 1.2 9 1.2Z" fill="white"/>
</svg>
