<svg xmlns="http://www.w3.org/2000/svg" xmlns:xlink="http://www.w3.org/1999/xlink" version="1.1" x="0px" y="0px" viewBox="0 0 496.017 620.02125" style="enable-background:new 0 0 496.017 496.017;" xml:space="preserve"><g><path d="M248.017,208.017c-74.991,0-136,53.832-136,120c0,32.489,14.471,66.284,39.703,92.72   c26.64,27.909,60.838,43.28,96.297,43.28s69.657-15.371,96.297-43.28c25.232-26.436,39.703-60.23,39.703-92.72   C384.017,261.849,323.008,208.017,248.017,208.017z M248.017,448.017c-67.581,0-120-64.507-120-120c0-57.346,53.832-104,120-104   s120,46.654,120,104C368.017,383.51,315.598,448.017,248.017,448.017z"/><path d="M335.598,320.968l15.887-1.902c-0.727-6.07-2.206-12.086-4.396-17.879l-14.966,5.66   C333.855,311.43,335.025,316.181,335.598,320.968z"/><path d="M248.017,240.017v16c31.525,0,60.857,14.013,76.55,36.568l13.134-9.137C319.064,256.658,284.699,240.017,248.017,240.017z"/><path d="M202.091,394.81c-11.148-13.007-18.074-29.404-18.074-42.794h-16c0,17.299,8.197,37.188,21.926,53.206   c14.595,17.028,32.847,26.794,50.074,26.794v-16C227.466,416.017,213.643,408.287,202.091,394.81z"/><path d="M293.943,394.81c-11.551,13.477-25.375,21.206-37.926,21.206v16c17.228,0,35.479-9.766,50.074-26.794   c13.729-16.018,21.926-35.907,21.926-53.206h-16C312.017,365.406,305.091,381.804,293.943,394.81z"/><path d="M169.154,176.666l-11.313-11.314c-26.434,26.435-77.664,35.475-96.167,16.971L50.36,193.637   c10.001,10,24.818,14.36,41.035,14.36C118.865,207.997,150.34,195.479,169.154,176.666z"/><path d="M180.357,165.463c29.922-29.922,43.912-91.854,16.971-118.795l-11.313,11.314c18.503,18.504,9.463,69.732-16.971,96.166   L180.357,165.463z"/><path d="M360.017,48.017c-27.365,0-53.339,7.93-75.733,23.019c-1.628-2.762-3.574-5.286-5.843-7.555   c-3.998-3.998-8.865-7.014-14.482-9.028c-5.078-9.815-12.309-17.763-19.46-24.915C221.562,6.602,188.724-3.504,152.027,1.08   c-35.946,4.493-71.411,22.636-99.86,51.085c-28.45,28.45-46.592,63.915-51.085,99.861c-4.587,36.694,5.52,69.534,28.458,92.472   c7.15,7.151,15.098,14.381,24.915,19.46c2.013,5.617,5.029,10.485,9.027,14.482c5.737,5.737,13.089,9.419,21.926,11.028   c-3.552,12.416-5.388,25.34-5.388,38.549c0,40.637,17.698,82.484,48.555,114.813c32.736,34.298,75.156,53.187,119.445,53.187   s86.708-18.889,119.445-53.187c30.857-32.329,48.555-74.177,48.555-114.813c0-6.565-0.454-13.061-1.345-19.458   c22.827-10.013,42.376-26.01,56.802-46.597c16.057-22.915,24.543-49.868,24.543-77.944   C496.017,109.026,435.008,48.017,360.017,48.017z M240.229,176.18c-7.368,0.303-14.653,1.04-21.821,2.187   c30.473-36.172,48.611-74.055,49.356-102.908C282.92,92.037,271.458,133.766,240.229,176.18z M63.671,250.664   c-8.729-4.056-16.124-10.784-22.819-17.479C0.303,192.636,10.454,116.506,63.48,63.479c25.946-25.946,58.098-42.469,90.531-46.522   c31.688-3.961,59.804,4.525,79.174,23.896c6.693,6.693,13.419,14.084,17.474,22.807c6.909,27.841-18.121,78.506-59.912,121.383   c-22.035,7.199-42.318,18.571-59.58,33.675c-8.81,7.709-16.552,16.134-23.183,25.127C90.385,250.983,74.747,253.398,63.671,250.664   z M75.447,267.752c6.091-0.163,12.636-1.106,19.548-2.812c-1.511,3.003-2.902,6.054-4.19,9.143   C84.404,273.336,79.242,271.231,75.447,267.752z M355.888,431.783c-29.688,31.104-67.997,48.233-107.871,48.233   s-78.183-17.13-107.871-48.233c-28.045-29.382-44.129-67.203-44.129-103.767c0-36.938,16.225-71.479,45.686-97.258   c28.552-24.983,66.309-38.742,106.314-38.742s77.762,13.759,106.314,38.742c29.461,25.779,45.686,60.319,45.686,97.258   C400.017,364.58,383.933,402.401,355.888,431.783z M411.443,292.456c-1.366-5.211-3.034-10.335-4.995-15.358   c35.225-17.521,57.569-53.224,57.569-93.082c0-57.346-46.654-104-104-104c-21.755,0-42.593,6.648-60.26,19.228l9.28,13.033   c14.941-10.638,32.57-16.261,50.979-16.261c48.523,0,88,39.477,88,88c0,33.541-18.704,63.599-48.227,78.512   c-6.211-11.784-14.138-22.855-23.671-32.968c15.076-2.664,29.642-7.472,43.475-14.389l-7.155-14.311   c-16.182,8.091-33.474,12.988-51.446,14.583c-3.883-3.193-7.905-6.208-12.056-9.034l48.737-48.737l-11.313-11.314l-51.466,51.466   c-2.16-1.181-4.345-2.319-6.557-3.409c1.257-18.979,6.339-37.831,14.835-54.822l-14.311-7.156   c-8.596,17.193-14.046,36.099-16.01,55.266c-16.777-6.334-34.696-10.183-53.174-11.324c13.592-20.077,23.089-39.875,27.687-57.895   c3.034-11.889,3.801-22.548,2.36-31.739c20.521-14.887,44.717-22.731,70.292-22.731c66.168,0,120,53.832,120,120   C480.017,230.298,452.812,272.761,411.443,292.456z"/></g><text x="0" y="511.017" fill="#000000" font-size="5px" font-weight="bold" font-family="'Helvetica Neue', Helvetica, Arial-Unicode, Arial, Sans-serif">Created by Eucalyp</text><text x="0" y="516.017" fill="#000000" font-size="5px" font-weight="bold" font-family="'Helvetica Neue', Helvetica, Arial-Unicode, Arial, Sans-serif">from the Noun Project</text></svg>