<svg width="14" height="16" viewBox="0 0 14 16" fill="none" xmlns="http://www.w3.org/2000/svg">
<path d="M4.66667 5.71429H5.83333V12.5714H4.66667V5.71429Z" fill="black"/>
<path d="M8.16667 5.71429H9.33333V12.5714H8.16667V5.71429Z" fill="black"/>
<path d="M0 2.28571V3.42857H1.16667V14.8571C1.16667 15.1602 1.28958 15.4509 1.50838 15.6653C1.72717 15.8796 2.02391 16 2.33333 16H11.6667C11.9761 16 12.2728 15.8796 12.4916 15.6653C12.7104 15.4509 12.8333 15.1602 12.8333 14.8571V3.42857H14V2.28571H0ZM2.33333 14.8571V3.42857H11.6667V14.8571H2.33333Z" fill="black"/>
<path d="M4.66667 0H9.33333V1.14286H4.66667V0Z" fill="black"/>
</svg>
