<svg width="13" height="18" viewBox="0 0 13 18" fill="none" xmlns="http://www.w3.org/2000/svg">
<path d="M6.5 18L6.1 17.5562C5.85 17.3096 0 10.5041 0 6.41096C0 2.86027 2.9 0 6.5 0C10.1 0 13 2.86027 13 6.41096C13 10.5041 7.15 17.3096 6.9 17.6055L6.5 18ZM6.5 0.986301C3.45 0.986301 1 3.40274 1 6.41096C1 9.56712 5.2 14.8932 6.5 16.4712C7.8 14.8932 12 9.56712 12 6.41096C12 3.40274 9.55 0.986301 6.5 0.986301Z" fill="white"/>
<path d="M6.5 8.87671C5.1 8.87671 4 7.79178 4 6.41096C4 5.03014 5.1 3.94521 6.5 3.94521C7.9 3.94521 9 5.03014 9 6.41096C9 7.79178 7.9 8.87671 6.5 8.87671ZM6.5 4.93151C5.65 4.93151 5 5.5726 5 6.41096C5 7.24932 5.65 7.89041 6.5 7.89041C7.35 7.89041 8 7.24932 8 6.41096C8 5.5726 7.35 4.93151 6.5 4.93151Z" fill="white"/>
</svg>
